<?xml version="1.0" encoding="UTF-8" standalone="no"?><!DOCTYPE svg PUBLIC "-//W3C//DTD SVG 1.1//EN" "http://www.w3.org/Graphics/SVG/1.1/DTD/svg11.dtd"><svg width="100%" height="100%" viewBox="0 0 5260 7936" version="1.1" xmlns="http://www.w3.org/2000/svg" xmlns:xlink="http://www.w3.org/1999/xlink" xml:space="preserve" xmlns:serif="http://www.serif.com/" style="fill-rule:evenodd;clip-rule:evenodd;stroke-linejoin:round;stroke-miterlimit:2;"><g transform="matrix(0.713769,0,0,0.713769,1347.97,-4671.58)"><g id="Strapline"><g><g transform="matrix(1237.15,0,0,1237.15,-1931.54,13951.4)"><path d="M0.311,0.01C0.256,0.01 0.204,0.002 0.154,-0.014C0.104,-0.029 0.064,-0.049 0.035,-0.074L0.08,-0.175C0.108,-0.153 0.143,-0.134 0.184,-0.12C0.226,-0.105 0.268,-0.098 0.311,-0.098C0.348,-0.098 0.377,-0.102 0.4,-0.11C0.423,-0.118 0.439,-0.129 0.45,-0.142C0.461,-0.156 0.466,-0.172 0.466,-0.189C0.466,-0.21 0.458,-0.227 0.443,-0.24C0.428,-0.253 0.408,-0.263 0.384,-0.271C0.359,-0.279 0.332,-0.287 0.303,-0.293C0.273,-0.3 0.243,-0.307 0.214,-0.316C0.184,-0.325 0.157,-0.337 0.132,-0.352C0.108,-0.366 0.088,-0.385 0.073,-0.409C0.058,-0.433 0.05,-0.464 0.05,-0.501C0.05,-0.539 0.06,-0.574 0.081,-0.605C0.101,-0.637 0.132,-0.662 0.173,-0.681C0.215,-0.7 0.268,-0.71 0.332,-0.71C0.374,-0.71 0.416,-0.705 0.457,-0.694C0.498,-0.683 0.534,-0.668 0.565,-0.648L0.524,-0.547C0.493,-0.566 0.46,-0.58 0.427,-0.589C0.394,-0.598 0.362,-0.602 0.331,-0.602C0.295,-0.602 0.266,-0.598 0.244,-0.589C0.221,-0.581 0.204,-0.569 0.194,-0.555C0.184,-0.541 0.179,-0.525 0.179,-0.507C0.179,-0.486 0.186,-0.468 0.201,-0.456C0.217,-0.443 0.236,-0.433 0.261,-0.425C0.285,-0.418 0.312,-0.41 0.342,-0.404C0.372,-0.397 0.401,-0.389 0.431,-0.38C0.461,-0.372 0.488,-0.36 0.512,-0.346C0.537,-0.332 0.556,-0.313 0.572,-0.289C0.587,-0.265 0.594,-0.235 0.594,-0.198C0.594,-0.161 0.584,-0.126 0.564,-0.095C0.543,-0.063 0.512,-0.038 0.47,-0.019C0.428,0 0.375,0.01 0.311,0.01Z" style="fill:rgb(0,139,210);fill-rule:nonzero;"/></g><g transform="matrix(1237.15,0,0,1237.15,-1153.2,13951.4)"><path d="M0.308,0.007C0.263,0.007 0.223,-0.002 0.188,-0.019C0.153,-0.035 0.126,-0.061 0.107,-0.096C0.087,-0.132 0.078,-0.176 0.078,-0.229L0.078,-0.534L0.203,-0.534L0.203,-0.246C0.203,-0.198 0.214,-0.162 0.236,-0.139C0.257,-0.115 0.288,-0.103 0.328,-0.103C0.357,-0.103 0.383,-0.109 0.405,-0.121C0.427,-0.133 0.444,-0.151 0.456,-0.175C0.468,-0.199 0.474,-0.229 0.474,-0.264L0.474,-0.534L0.599,-0.534L0.599,-0L0.48,-0L0.48,-0.144L0.501,-0.1C0.483,-0.066 0.457,-0.039 0.422,-0.021C0.388,-0.003 0.35,0.007 0.308,0.007Z" style="fill:rgb(0,139,210);fill-rule:nonzero;"/></g><g transform="matrix(1237.15,0,0,1237.15,-310.142,13951.4)"><path d="M0.247,0.007C0.203,0.007 0.16,0.001 0.119,-0.011C0.078,-0.022 0.045,-0.036 0.021,-0.053L0.069,-0.148C0.093,-0.132 0.122,-0.12 0.155,-0.11C0.188,-0.1 0.222,-0.095 0.255,-0.095C0.295,-0.095 0.323,-0.1 0.341,-0.111C0.358,-0.121 0.367,-0.136 0.367,-0.154C0.367,-0.169 0.361,-0.18 0.349,-0.188C0.337,-0.195 0.321,-0.201 0.302,-0.205C0.282,-0.209 0.261,-0.213 0.237,-0.216C0.214,-0.219 0.19,-0.224 0.167,-0.23C0.143,-0.235 0.122,-0.244 0.102,-0.254C0.083,-0.265 0.067,-0.28 0.055,-0.299C0.043,-0.318 0.037,-0.343 0.037,-0.373C0.037,-0.407 0.047,-0.436 0.066,-0.461C0.085,-0.486 0.112,-0.506 0.147,-0.52C0.182,-0.534 0.224,-0.54 0.272,-0.54C0.308,-0.54 0.344,-0.536 0.381,-0.528C0.418,-0.52 0.448,-0.508 0.472,-0.494L0.424,-0.399C0.399,-0.414 0.374,-0.425 0.348,-0.43C0.322,-0.436 0.296,-0.439 0.271,-0.439C0.233,-0.439 0.205,-0.433 0.187,-0.422C0.168,-0.411 0.159,-0.396 0.159,-0.379C0.159,-0.363 0.165,-0.351 0.177,-0.343C0.189,-0.335 0.205,-0.329 0.224,-0.324C0.244,-0.32 0.265,-0.316 0.289,-0.312C0.312,-0.309 0.336,-0.305 0.359,-0.299C0.383,-0.293 0.404,-0.285 0.424,-0.274C0.443,-0.264 0.459,-0.249 0.471,-0.231C0.483,-0.212 0.489,-0.188 0.489,-0.158C0.489,-0.124 0.479,-0.095 0.459,-0.071C0.44,-0.046 0.412,-0.027 0.376,-0.014C0.34,-0 0.297,0.007 0.247,0.007Z" style="fill:rgb(0,139,210);fill-rule:nonzero;"/></g><g transform="matrix(1237.15,0,0,1237.15,327.447,13951.4)"><path d="M0.283,0.007C0.224,0.007 0.179,-0.009 0.147,-0.039C0.115,-0.069 0.099,-0.114 0.099,-0.173L0.099,-0.652L0.224,-0.652L0.224,-0.176C0.224,-0.15 0.23,-0.131 0.243,-0.117C0.256,-0.103 0.275,-0.096 0.298,-0.096C0.326,-0.096 0.349,-0.103 0.368,-0.118L0.403,-0.029C0.388,-0.017 0.37,-0.008 0.349,-0.002C0.327,0.004 0.305,0.007 0.283,0.007ZM0.011,-0.434L0.011,-0.534L0.367,-0.534L0.367,-0.434L0.011,-0.434Z" style="fill:rgb(0,139,210);fill-rule:nonzero;"/></g><g transform="matrix(1237.15,0,0,1237.15,828.864,13951.4)"><path d="M0.411,-0L0.411,-0.108L0.404,-0.131L0.404,-0.32C0.404,-0.357 0.393,-0.385 0.371,-0.405C0.349,-0.426 0.315,-0.436 0.271,-0.436C0.241,-0.436 0.211,-0.431 0.183,-0.422C0.154,-0.413 0.129,-0.4 0.109,-0.383L0.06,-0.474C0.089,-0.496 0.123,-0.512 0.163,-0.524C0.202,-0.535 0.244,-0.54 0.286,-0.54C0.363,-0.54 0.423,-0.522 0.466,-0.485C0.508,-0.448 0.529,-0.391 0.529,-0.313L0.529,-0L0.411,-0ZM0.243,0.007C0.203,0.007 0.168,-0 0.138,-0.014C0.108,-0.027 0.084,-0.046 0.068,-0.071C0.052,-0.095 0.044,-0.122 0.044,-0.153C0.044,-0.183 0.051,-0.21 0.066,-0.234C0.08,-0.258 0.104,-0.277 0.136,-0.291C0.169,-0.305 0.212,-0.312 0.266,-0.312L0.421,-0.312L0.421,-0.229L0.275,-0.229C0.232,-0.229 0.204,-0.222 0.189,-0.208C0.174,-0.195 0.167,-0.178 0.167,-0.158C0.167,-0.135 0.176,-0.117 0.194,-0.104C0.212,-0.091 0.237,-0.084 0.269,-0.084C0.3,-0.084 0.327,-0.091 0.352,-0.105C0.376,-0.119 0.394,-0.139 0.404,-0.167L0.425,-0.092C0.413,-0.06 0.392,-0.036 0.361,-0.019C0.33,-0.002 0.291,0.007 0.243,0.007Z" style="fill:rgb(0,139,210);fill-rule:nonzero;"/></g><g transform="matrix(1237.15,0,0,1237.15,1579.55,13951.4)"><path d="M0.082,-0L0.082,-0.534L0.207,-0.534L0.207,-0L0.082,-0ZM0.145,-0.622C0.122,-0.622 0.102,-0.629 0.088,-0.644C0.073,-0.659 0.065,-0.676 0.065,-0.697C0.065,-0.718 0.073,-0.736 0.088,-0.751C0.102,-0.765 0.122,-0.772 0.145,-0.772C0.168,-0.772 0.188,-0.765 0.203,-0.752C0.218,-0.738 0.225,-0.721 0.225,-0.7C0.225,-0.678 0.218,-0.66 0.203,-0.645C0.188,-0.63 0.169,-0.622 0.145,-0.622Z" style="fill:rgb(0,139,210);fill-rule:nonzero;"/></g><g transform="matrix(1237.15,0,0,1237.15,1937.61,13951.4)"><path d="M0.082,-0L0.082,-0.534L0.201,-0.534L0.201,-0.39L0.18,-0.434C0.199,-0.468 0.226,-0.495 0.261,-0.513C0.297,-0.531 0.338,-0.54 0.385,-0.54C0.428,-0.54 0.466,-0.532 0.5,-0.515C0.533,-0.499 0.559,-0.473 0.579,-0.439C0.598,-0.404 0.608,-0.36 0.608,-0.306L0.608,-0L0.483,-0L0.483,-0.29C0.483,-0.337 0.472,-0.372 0.45,-0.396C0.427,-0.419 0.396,-0.431 0.356,-0.431C0.327,-0.431 0.301,-0.425 0.278,-0.413C0.255,-0.401 0.238,-0.383 0.226,-0.359C0.213,-0.336 0.207,-0.306 0.207,-0.27L0.207,-0L0.082,-0Z" style="fill:rgb(0,139,210);fill-rule:nonzero;"/></g><g transform="matrix(1237.15,0,0,1237.15,2785.62,13951.4)"><path d="M0.411,-0L0.411,-0.108L0.404,-0.131L0.404,-0.32C0.404,-0.357 0.393,-0.385 0.371,-0.405C0.349,-0.426 0.315,-0.436 0.271,-0.436C0.241,-0.436 0.211,-0.431 0.183,-0.422C0.154,-0.413 0.129,-0.4 0.109,-0.383L0.06,-0.474C0.089,-0.496 0.123,-0.512 0.163,-0.524C0.202,-0.535 0.244,-0.54 0.286,-0.54C0.363,-0.54 0.423,-0.522 0.466,-0.485C0.508,-0.448 0.529,-0.391 0.529,-0.313L0.529,-0L0.411,-0ZM0.243,0.007C0.203,0.007 0.168,-0 0.138,-0.014C0.108,-0.027 0.084,-0.046 0.068,-0.071C0.052,-0.095 0.044,-0.122 0.044,-0.153C0.044,-0.183 0.051,-0.21 0.066,-0.234C0.08,-0.258 0.104,-0.277 0.136,-0.291C0.169,-0.305 0.212,-0.312 0.266,-0.312L0.421,-0.312L0.421,-0.229L0.275,-0.229C0.232,-0.229 0.204,-0.222 0.189,-0.208C0.174,-0.195 0.167,-0.178 0.167,-0.158C0.167,-0.135 0.176,-0.117 0.194,-0.104C0.212,-0.091 0.237,-0.084 0.269,-0.084C0.3,-0.084 0.327,-0.091 0.352,-0.105C0.376,-0.119 0.394,-0.139 0.404,-0.167L0.425,-0.092C0.413,-0.06 0.392,-0.036 0.361,-0.019C0.33,-0.002 0.291,0.007 0.243,0.007Z" style="fill:rgb(0,139,210);fill-rule:nonzero;"/></g><g transform="matrix(1237.15,0,0,1237.15,3536.31,13951.4)"><path d="M0.378,0.007C0.333,0.007 0.293,-0.003 0.257,-0.023C0.221,-0.043 0.194,-0.073 0.174,-0.113C0.153,-0.154 0.143,-0.205 0.143,-0.267C0.143,-0.329 0.154,-0.381 0.175,-0.421C0.195,-0.461 0.224,-0.491 0.259,-0.511C0.295,-0.531 0.335,-0.54 0.378,-0.54C0.431,-0.54 0.477,-0.529 0.517,-0.506C0.558,-0.484 0.59,-0.452 0.613,-0.411C0.637,-0.37 0.649,-0.322 0.649,-0.267C0.649,-0.212 0.637,-0.164 0.613,-0.123C0.59,-0.082 0.558,-0.05 0.517,-0.028C0.477,-0.005 0.431,0.007 0.378,0.007ZM0.082,-0L0.082,-0.742L0.207,-0.742L0.207,-0.41L0.197,-0.268L0.201,-0.126L0.201,-0L0.082,-0ZM0.364,-0.1C0.394,-0.1 0.421,-0.107 0.444,-0.12C0.468,-0.134 0.487,-0.153 0.501,-0.178C0.515,-0.204 0.522,-0.233 0.522,-0.267C0.522,-0.301 0.515,-0.331 0.501,-0.356C0.487,-0.381 0.468,-0.4 0.444,-0.414C0.421,-0.427 0.394,-0.434 0.364,-0.434C0.334,-0.434 0.307,-0.427 0.283,-0.414C0.259,-0.4 0.24,-0.381 0.226,-0.356C0.212,-0.331 0.205,-0.301 0.205,-0.267C0.205,-0.233 0.212,-0.204 0.226,-0.178C0.24,-0.153 0.259,-0.134 0.283,-0.12C0.307,-0.107 0.334,-0.1 0.364,-0.1Z" style="fill:rgb(0,139,210);fill-rule:nonzero;"/></g><g transform="matrix(1237.15,0,0,1237.15,4385.07,13951.4)"><rect x="0.082" y="-0.742" width="0.125" height="0.742" style="fill:rgb(0,139,210);fill-rule:nonzero;"/></g><g transform="matrix(1237.15,0,0,1237.15,4743.14,13951.4)"><path d="M0.333,0.007C0.274,0.007 0.222,-0.005 0.178,-0.029C0.133,-0.052 0.099,-0.085 0.074,-0.126C0.05,-0.167 0.038,-0.214 0.038,-0.267C0.038,-0.32 0.049,-0.367 0.073,-0.408C0.097,-0.45 0.13,-0.482 0.172,-0.505C0.213,-0.529 0.261,-0.54 0.314,-0.54C0.366,-0.54 0.412,-0.529 0.453,-0.506C0.494,-0.484 0.526,-0.451 0.549,-0.41C0.572,-0.369 0.584,-0.32 0.584,-0.264C0.584,-0.258 0.584,-0.253 0.584,-0.246C0.583,-0.239 0.583,-0.233 0.582,-0.227L0.137,-0.227L0.137,-0.31L0.516,-0.31L0.467,-0.284C0.467,-0.314 0.461,-0.341 0.448,-0.365C0.435,-0.388 0.417,-0.406 0.394,-0.42C0.371,-0.433 0.344,-0.44 0.314,-0.44C0.284,-0.44 0.257,-0.433 0.234,-0.42C0.21,-0.406 0.192,-0.388 0.179,-0.364C0.167,-0.34 0.16,-0.313 0.16,-0.281L0.16,-0.261C0.16,-0.229 0.167,-0.201 0.182,-0.176C0.197,-0.152 0.217,-0.133 0.244,-0.119C0.27,-0.105 0.301,-0.099 0.336,-0.099C0.366,-0.099 0.393,-0.103 0.417,-0.113C0.441,-0.123 0.462,-0.137 0.481,-0.157L0.548,-0.08C0.524,-0.052 0.494,-0.03 0.457,-0.016C0.421,-0.001 0.379,0.007 0.333,0.007Z" style="fill:rgb(0,139,210);fill-rule:nonzero;"/></g><g transform="matrix(1237.15,0,0,1237.15,848.776,15188.6)"><path d="M0.094,-0L0.094,-0.7L0.382,-0.7C0.444,-0.7 0.497,-0.69 0.541,-0.67C0.586,-0.65 0.62,-0.622 0.644,-0.584C0.668,-0.547 0.68,-0.502 0.68,-0.451C0.68,-0.4 0.668,-0.356 0.644,-0.318C0.62,-0.281 0.586,-0.252 0.541,-0.232C0.497,-0.212 0.444,-0.202 0.382,-0.202L0.166,-0.202L0.224,-0.263L0.224,-0L0.094,-0ZM0.224,-0.249L0.166,-0.312L0.376,-0.312C0.433,-0.312 0.476,-0.324 0.505,-0.349C0.535,-0.373 0.549,-0.407 0.549,-0.451C0.549,-0.495 0.535,-0.53 0.505,-0.554C0.476,-0.578 0.433,-0.59 0.376,-0.59L0.166,-0.59L0.224,-0.654L0.224,-0.249Z" style="fill:rgb(0,139,210);fill-rule:nonzero;"/></g><g transform="matrix(1237.15,0,0,1237.15,1728.95,15188.6)"><path d="M0.082,-0L0.082,-0.534L0.201,-0.534L0.201,-0.387L0.187,-0.43C0.203,-0.466 0.228,-0.494 0.263,-0.512C0.297,-0.531 0.34,-0.54 0.391,-0.54L0.391,-0.421C0.385,-0.422 0.38,-0.423 0.376,-0.423C0.371,-0.424 0.367,-0.424 0.362,-0.424C0.315,-0.424 0.277,-0.41 0.249,-0.382C0.221,-0.355 0.207,-0.314 0.207,-0.259L0.207,-0L0.082,-0Z" style="fill:rgb(0,139,210);fill-rule:nonzero;"/></g><g transform="matrix(1237.15,0,0,1237.15,2236.56,15188.6)"><path d="M0.322,0.007C0.268,0.007 0.219,-0.005 0.176,-0.029C0.133,-0.052 0.099,-0.085 0.075,-0.126C0.05,-0.167 0.038,-0.214 0.038,-0.267C0.038,-0.321 0.05,-0.368 0.075,-0.409C0.1,-0.45 0.133,-0.482 0.176,-0.505C0.219,-0.529 0.267,-0.54 0.322,-0.54C0.377,-0.54 0.427,-0.529 0.47,-0.505C0.512,-0.482 0.546,-0.45 0.571,-0.409C0.595,-0.368 0.607,-0.321 0.607,-0.267C0.607,-0.214 0.595,-0.167 0.571,-0.126C0.546,-0.084 0.513,-0.052 0.469,-0.029C0.426,-0.005 0.377,0.007 0.322,0.007ZM0.322,-0.1C0.353,-0.1 0.38,-0.107 0.404,-0.12C0.428,-0.134 0.447,-0.153 0.46,-0.178C0.474,-0.204 0.481,-0.233 0.481,-0.267C0.481,-0.302 0.474,-0.331 0.46,-0.356C0.447,-0.381 0.428,-0.4 0.404,-0.414C0.38,-0.427 0.353,-0.434 0.323,-0.434C0.293,-0.434 0.266,-0.427 0.242,-0.414C0.218,-0.4 0.199,-0.381 0.185,-0.356C0.171,-0.331 0.164,-0.302 0.164,-0.267C0.164,-0.233 0.171,-0.204 0.185,-0.178C0.199,-0.153 0.218,-0.134 0.242,-0.12C0.265,-0.107 0.292,-0.1 0.322,-0.1Z" style="fill:rgb(0,139,210);fill-rule:nonzero;"/></g><g transform="matrix(1237.15,0,0,1237.15,3034.41,15188.6)"><path d="M0.283,0.007C0.224,0.007 0.179,-0.009 0.147,-0.039C0.115,-0.069 0.099,-0.114 0.099,-0.173L0.099,-0.652L0.224,-0.652L0.224,-0.176C0.224,-0.15 0.23,-0.131 0.243,-0.117C0.256,-0.103 0.275,-0.096 0.298,-0.096C0.326,-0.096 0.349,-0.103 0.368,-0.118L0.403,-0.029C0.388,-0.017 0.37,-0.008 0.349,-0.002C0.327,0.004 0.305,0.007 0.283,0.007ZM0.011,-0.434L0.011,-0.534L0.367,-0.534L0.367,-0.434L0.011,-0.434Z" style="fill:rgb(0,139,210);fill-rule:nonzero;"/></g><g transform="matrix(1237.15,0,0,1237.15,3537.06,15188.6)"><path d="M0.333,0.007C0.274,0.007 0.222,-0.005 0.178,-0.029C0.133,-0.052 0.099,-0.085 0.074,-0.126C0.05,-0.167 0.038,-0.214 0.038,-0.267C0.038,-0.32 0.049,-0.367 0.073,-0.408C0.097,-0.45 0.13,-0.482 0.172,-0.505C0.213,-0.529 0.261,-0.54 0.314,-0.54C0.366,-0.54 0.412,-0.529 0.453,-0.506C0.494,-0.484 0.526,-0.451 0.549,-0.41C0.572,-0.369 0.584,-0.32 0.584,-0.264C0.584,-0.258 0.584,-0.253 0.584,-0.246C0.583,-0.239 0.583,-0.233 0.582,-0.227L0.137,-0.227L0.137,-0.31L0.516,-0.31L0.467,-0.284C0.467,-0.314 0.461,-0.341 0.448,-0.365C0.435,-0.388 0.417,-0.406 0.394,-0.42C0.371,-0.433 0.344,-0.44 0.314,-0.44C0.284,-0.44 0.257,-0.433 0.234,-0.42C0.21,-0.406 0.192,-0.388 0.179,-0.364C0.167,-0.34 0.16,-0.313 0.16,-0.281L0.16,-0.261C0.16,-0.229 0.167,-0.201 0.182,-0.176C0.197,-0.152 0.217,-0.133 0.244,-0.119C0.27,-0.105 0.301,-0.099 0.336,-0.099C0.366,-0.099 0.393,-0.103 0.417,-0.113C0.441,-0.123 0.462,-0.137 0.481,-0.157L0.548,-0.08C0.524,-0.052 0.494,-0.03 0.457,-0.016C0.421,-0.001 0.379,0.007 0.333,0.007Z" style="fill:rgb(0,139,210);fill-rule:nonzero;"/></g><g transform="matrix(1237.15,0,0,1237.15,4306.14,15188.6)"><path d="M0.082,-0L0.082,-0.534L0.207,-0.534L0.207,-0L0.082,-0ZM0.145,-0.622C0.122,-0.622 0.102,-0.629 0.088,-0.644C0.073,-0.659 0.065,-0.676 0.065,-0.697C0.065,-0.718 0.073,-0.736 0.088,-0.751C0.102,-0.765 0.122,-0.772 0.145,-0.772C0.168,-0.772 0.188,-0.765 0.203,-0.752C0.218,-0.738 0.225,-0.721 0.225,-0.7C0.225,-0.678 0.218,-0.66 0.203,-0.645C0.188,-0.63 0.169,-0.622 0.145,-0.622Z" style="fill:rgb(0,139,210);fill-rule:nonzero;"/></g><g transform="matrix(1237.15,0,0,1237.15,4664.21,15188.6)"><path d="M0.082,-0L0.082,-0.534L0.201,-0.534L0.201,-0.39L0.18,-0.434C0.199,-0.468 0.226,-0.495 0.261,-0.513C0.297,-0.531 0.338,-0.54 0.385,-0.54C0.428,-0.54 0.466,-0.532 0.5,-0.515C0.533,-0.499 0.559,-0.473 0.579,-0.439C0.598,-0.404 0.608,-0.36 0.608,-0.306L0.608,-0L0.483,-0L0.483,-0.29C0.483,-0.337 0.472,-0.372 0.45,-0.396C0.427,-0.419 0.396,-0.431 0.356,-0.431C0.327,-0.431 0.301,-0.425 0.278,-0.413C0.255,-0.401 0.238,-0.383 0.226,-0.359C0.213,-0.336 0.207,-0.306 0.207,-0.27L0.207,-0L0.082,-0Z" style="fill:rgb(0,139,210);fill-rule:nonzero;"/></g><g transform="matrix(1237.15,0,0,1237.15,3424.84,16425.7)"><path d="M0.094,-0L0.094,-0.7L0.605,-0.7L0.605,-0.591L0.224,-0.591L0.224,-0L0.094,-0ZM0.213,-0.268L0.213,-0.378L0.562,-0.378L0.562,-0.268L0.213,-0.268Z" style="fill:rgb(0,139,210);fill-rule:nonzero;"/></g><g transform="matrix(1237.15,0,0,1237.15,4194.39,16425.7)"><path d="M0.322,0.007C0.268,0.007 0.219,-0.005 0.176,-0.029C0.133,-0.052 0.099,-0.085 0.075,-0.126C0.05,-0.167 0.038,-0.214 0.038,-0.267C0.038,-0.321 0.05,-0.368 0.075,-0.409C0.1,-0.45 0.133,-0.482 0.176,-0.505C0.219,-0.529 0.267,-0.54 0.322,-0.54C0.377,-0.54 0.427,-0.529 0.47,-0.505C0.512,-0.482 0.546,-0.45 0.571,-0.409C0.595,-0.368 0.607,-0.321 0.607,-0.267C0.607,-0.214 0.595,-0.167 0.571,-0.126C0.546,-0.084 0.513,-0.052 0.469,-0.029C0.426,-0.005 0.377,0.007 0.322,0.007ZM0.322,-0.1C0.353,-0.1 0.38,-0.107 0.404,-0.12C0.428,-0.134 0.447,-0.153 0.46,-0.178C0.474,-0.204 0.481,-0.233 0.481,-0.267C0.481,-0.302 0.474,-0.331 0.46,-0.356C0.447,-0.381 0.428,-0.4 0.404,-0.414C0.38,-0.427 0.353,-0.434 0.323,-0.434C0.293,-0.434 0.266,-0.427 0.242,-0.414C0.218,-0.4 0.199,-0.381 0.185,-0.356C0.171,-0.331 0.164,-0.302 0.164,-0.267C0.164,-0.233 0.171,-0.204 0.185,-0.178C0.199,-0.153 0.218,-0.134 0.242,-0.12C0.265,-0.107 0.292,-0.1 0.322,-0.1Z" style="fill:rgb(0,139,210);fill-rule:nonzero;"/></g><g transform="matrix(1237.15,0,0,1237.15,4992.25,16425.7)"><path d="M0.082,-0L0.082,-0.534L0.201,-0.534L0.201,-0.387L0.187,-0.43C0.203,-0.466 0.228,-0.494 0.263,-0.512C0.297,-0.531 0.34,-0.54 0.391,-0.54L0.391,-0.421C0.385,-0.422 0.38,-0.423 0.376,-0.423C0.371,-0.424 0.367,-0.424 0.362,-0.424C0.315,-0.424 0.277,-0.41 0.249,-0.382C0.221,-0.355 0.207,-0.314 0.207,-0.259L0.207,-0L0.082,-0Z" style="fill:rgb(0,139,210);fill-rule:nonzero;"/></g><g transform="matrix(1237.15,0,0,1237.15,3870.04,17662.9)"><path d="M-0.005,-0L0.31,-0.7L0.438,-0.7L0.754,-0L0.618,-0L0.347,-0.631L0.399,-0.631L0.129,-0L-0.005,-0ZM0.14,-0.162L0.175,-0.264L0.553,-0.264L0.588,-0.162L0.14,-0.162Z" style="fill:rgb(134,188,37);fill-rule:nonzero;"/></g><g transform="matrix(1237.15,0,0,1237.15,4796.08,17662.9)"><rect x="0.082" y="-0.742" width="0.125" height="0.742" style="fill:rgb(134,188,37);fill-rule:nonzero;"/></g><g transform="matrix(1237.15,0,0,1237.15,5154.15,17662.9)"><rect x="0.082" y="-0.742" width="0.125" height="0.742" style="fill:rgb(134,188,37);fill-rule:nonzero;"/></g></g></g></g><g id="Logo" transform="matrix(7.44014,0,0,7.44014,-1772.83,-2493.83)"><g transform="matrix(6.26872,0,0,6.26872,-798.384,-1499.65)"><g transform="matrix(47.6543,0,0,47.6543,165.704,326.055)"><path d="M-0.005,-0L0.31,-0.7L0.438,-0.7L0.754,-0L0.618,-0L0.347,-0.631L0.399,-0.631L0.129,-0L-0.005,-0ZM0.14,-0.162L0.175,-0.264L0.553,-0.264L0.588,-0.162L0.14,-0.162Z" style="fill-rule:nonzero;"/></g><g transform="matrix(47.6543,0,0,47.6543,201.375,326.055)"><path d="M0.094,-0L0.094,-0.7L0.201,-0.7L0.507,-0.189L0.451,-0.189L0.752,-0.7L0.859,-0.7L0.86,-0L0.737,-0L0.736,-0.507L0.762,-0.507L0.506,-0.08L0.448,-0.08L0.188,-0.507L0.218,-0.507L0.218,-0L0.094,-0Z" style="fill-rule:nonzero;"/></g><g transform="matrix(47.6543,0,0,47.6543,246.211,326.055)"><path d="M0.266,-0L0.266,-0.277L0.295,-0.197L-0.009,-0.7L0.13,-0.7L0.374,-0.295L0.296,-0.295L0.542,-0.7L0.67,-0.7L0.366,-0.197L0.396,-0.277L0.396,-0L0.266,-0Z" style="fill-rule:nonzero;"/></g></g><g transform="matrix(6.50735,0,0,6.50735,-692.139,-1301.02)"><g><g><g transform="matrix(47.6543,0,0,47.6543,165.704,326.055)"><path d="M0.122,0.007C0.1,0.007 0.08,-0.001 0.064,-0.017C0.048,-0.033 0.04,-0.052 0.04,-0.076C0.04,-0.101 0.048,-0.121 0.064,-0.136C0.08,-0.152 0.1,-0.159 0.122,-0.159C0.145,-0.159 0.164,-0.152 0.18,-0.136C0.196,-0.121 0.204,-0.101 0.204,-0.076C0.204,-0.052 0.196,-0.033 0.18,-0.017C0.164,-0.001 0.145,0.007 0.122,0.007Z" style="fill:rgb(134,188,37);fill-rule:nonzero;"/></g><g transform="matrix(47.6543,0,0,47.6543,177.328,326.055)"><path d="M0.098,-0L0.098,-0.7L0.421,-0.7C0.504,-0.7 0.567,-0.684 0.611,-0.651C0.655,-0.618 0.677,-0.574 0.677,-0.518C0.677,-0.481 0.668,-0.449 0.651,-0.423C0.634,-0.396 0.611,-0.376 0.583,-0.362C0.555,-0.348 0.525,-0.341 0.493,-0.341L0.511,-0.375C0.549,-0.375 0.583,-0.368 0.613,-0.353C0.644,-0.339 0.668,-0.319 0.686,-0.291C0.704,-0.264 0.713,-0.23 0.713,-0.19C0.713,-0.13 0.69,-0.083 0.644,-0.05C0.599,-0.017 0.531,-0 0.441,-0L0.098,-0ZM0.217,-0.096L0.435,-0.096C0.486,-0.096 0.525,-0.105 0.552,-0.121C0.579,-0.138 0.592,-0.164 0.592,-0.201C0.592,-0.237 0.579,-0.264 0.552,-0.281C0.525,-0.298 0.486,-0.307 0.435,-0.307L0.208,-0.307L0.208,-0.402L0.409,-0.402C0.456,-0.402 0.492,-0.411 0.518,-0.427C0.543,-0.444 0.556,-0.469 0.556,-0.503C0.556,-0.537 0.543,-0.562 0.518,-0.579C0.492,-0.595 0.456,-0.604 0.409,-0.604L0.217,-0.604L0.217,-0.096Z" style="fill-rule:nonzero;"/></g><g transform="matrix(47.6543,0,0,47.6543,213.527,326.055)"><path d="M0.422,0.01C0.367,0.01 0.317,0.001 0.271,-0.017C0.225,-0.035 0.185,-0.06 0.151,-0.093C0.117,-0.125 0.091,-0.163 0.072,-0.207C0.053,-0.25 0.044,-0.298 0.044,-0.35C0.044,-0.402 0.053,-0.45 0.072,-0.493C0.091,-0.537 0.117,-0.575 0.151,-0.607C0.185,-0.64 0.225,-0.665 0.271,-0.683C0.317,-0.701 0.367,-0.71 0.421,-0.71C0.476,-0.71 0.526,-0.701 0.572,-0.683C0.617,-0.665 0.657,-0.64 0.691,-0.608C0.725,-0.576 0.751,-0.538 0.77,-0.494C0.789,-0.45 0.798,-0.402 0.798,-0.35C0.798,-0.298 0.789,-0.25 0.77,-0.206C0.751,-0.162 0.725,-0.124 0.691,-0.092C0.657,-0.06 0.617,-0.035 0.572,-0.017C0.526,0.001 0.476,0.01 0.422,0.01ZM0.421,-0.104C0.457,-0.104 0.489,-0.11 0.519,-0.122C0.549,-0.134 0.575,-0.151 0.597,-0.173C0.619,-0.195 0.636,-0.222 0.649,-0.252C0.661,-0.281 0.667,-0.314 0.667,-0.35C0.667,-0.386 0.661,-0.419 0.649,-0.449C0.636,-0.478 0.619,-0.504 0.597,-0.527C0.575,-0.549 0.549,-0.566 0.519,-0.578C0.489,-0.59 0.457,-0.596 0.421,-0.596C0.386,-0.596 0.353,-0.59 0.323,-0.578C0.293,-0.566 0.267,-0.549 0.245,-0.526C0.223,-0.504 0.206,-0.478 0.193,-0.448C0.181,-0.419 0.175,-0.386 0.175,-0.35C0.175,-0.315 0.181,-0.282 0.193,-0.252C0.205,-0.222 0.223,-0.196 0.245,-0.173C0.267,-0.151 0.293,-0.134 0.323,-0.122C0.353,-0.11 0.386,-0.104 0.421,-0.104Z" style="fill-rule:nonzero;"/></g></g></g></g></g></svg>